<mxfile host="www.draw.io" modified="2020-03-02T15:39:35.432Z" agent="Mozilla/5.0 (Windows NT 10.0; Win64; x64) AppleWebKit/537.36 (KHTML, like Gecko) Chrome/80.0.3987.122 Safari/537.36" etag="KVvvZOXx8WLra9EaPAyi" version="12.7.9" type="github">
  <diagram id="wyIyM5-r8cMehuMoGKBF" name="Page-1">
    <mxGraphModel dx="868" dy="460" grid="1" gridSize="10" guides="1" tooltips="1" connect="1" arrows="1" fold="1" page="1" pageScale="1" pageWidth="850" pageHeight="1100" math="0" shadow="0">
      <root>
        <mxCell id="0" />
        <mxCell id="1" parent="0" />
        <mxCell id="SQy8fN8xQ_37G8Pt4eEv-1" value="" style="ellipse;html=1;shape=startState;fillColor=#000000;strokeColor=#ff0000;" parent="1" vertex="1">
          <mxGeometry x="425" y="120" width="30" height="30" as="geometry" />
        </mxCell>
        <mxCell id="SQy8fN8xQ_37G8Pt4eEv-2" value="" style="edgeStyle=orthogonalEdgeStyle;html=1;verticalAlign=bottom;endArrow=open;endSize=8;strokeColor=#ff0000;entryX=0.5;entryY=0;entryDx=0;entryDy=0;" parent="1" source="SQy8fN8xQ_37G8Pt4eEv-1" target="SQy8fN8xQ_37G8Pt4eEv-4" edge="1">
          <mxGeometry relative="1" as="geometry">
            <mxPoint x="440" y="190" as="targetPoint" />
          </mxGeometry>
        </mxCell>
        <mxCell id="SQy8fN8xQ_37G8Pt4eEv-3" value="&lt;b&gt;&lt;font style=&quot;font-size: 16px&quot;&gt;Admin&lt;/font&gt;&lt;/b&gt;" style="text;html=1;strokeColor=none;fillColor=none;align=center;verticalAlign=middle;whiteSpace=wrap;rounded=0;" parent="1" vertex="1">
          <mxGeometry x="410" y="70" width="70" height="20" as="geometry" />
        </mxCell>
        <mxCell id="SQy8fN8xQ_37G8Pt4eEv-4" value="Login" style="rhombus;whiteSpace=wrap;html=1;fillColor=#ffffc0;strokeColor=#ff0000;" parent="1" vertex="1">
          <mxGeometry x="400" y="200" width="80" height="40" as="geometry" />
        </mxCell>
        <mxCell id="SQy8fN8xQ_37G8Pt4eEv-6" value="yes" style="edgeStyle=orthogonalEdgeStyle;html=1;align=left;verticalAlign=top;endArrow=open;endSize=8;strokeColor=#ff0000;entryX=0.499;entryY=0.319;entryDx=0;entryDy=0;entryPerimeter=0;" parent="1" source="SQy8fN8xQ_37G8Pt4eEv-4" target="SQy8fN8xQ_37G8Pt4eEv-10" edge="1">
          <mxGeometry x="-1" relative="1" as="geometry">
            <mxPoint x="439" y="260" as="targetPoint" />
            <Array as="points">
              <mxPoint x="440" y="240" />
              <mxPoint x="439" y="240" />
            </Array>
          </mxGeometry>
        </mxCell>
        <mxCell id="SQy8fN8xQ_37G8Pt4eEv-10" value="" style="line;strokeWidth=1;fillColor=none;align=left;verticalAlign=middle;spacingTop=-1;spacingLeft=3;spacingRight=3;rotatable=0;labelPosition=right;points=[];portConstraint=eastwest;" parent="1" vertex="1">
          <mxGeometry x="120" y="270" width="640" height="8" as="geometry" />
        </mxCell>
        <mxCell id="SQy8fN8xQ_37G8Pt4eEv-14" value="" style="endArrow=classic;html=1;" parent="1" edge="1">
          <mxGeometry width="50" height="50" relative="1" as="geometry">
            <mxPoint x="122" y="274" as="sourcePoint" />
            <mxPoint x="122" y="310" as="targetPoint" />
            <Array as="points">
              <mxPoint x="122" y="290" />
            </Array>
          </mxGeometry>
        </mxCell>
        <mxCell id="SQy8fN8xQ_37G8Pt4eEv-15" value="Approve Varsity Application" style="rounded=0;whiteSpace=wrap;html=1;" parent="1" vertex="1">
          <mxGeometry x="80" y="310" width="100" height="40" as="geometry" />
        </mxCell>
        <mxCell id="SQy8fN8xQ_37G8Pt4eEv-16" value="" style="endArrow=classic;html=1;exitX=0.189;exitY=0.72;exitDx=0;exitDy=0;exitPerimeter=0;entryX=0.475;entryY=0.017;entryDx=0;entryDy=0;entryPerimeter=0;" parent="1" source="SQy8fN8xQ_37G8Pt4eEv-10" target="SQy8fN8xQ_37G8Pt4eEv-17" edge="1">
          <mxGeometry width="50" height="50" relative="1" as="geometry">
            <mxPoint x="280" y="350" as="sourcePoint" />
            <mxPoint x="256" y="300" as="targetPoint" />
          </mxGeometry>
        </mxCell>
        <mxCell id="SQy8fN8xQ_37G8Pt4eEv-17" value="Process Hotel Booking" style="rounded=0;whiteSpace=wrap;html=1;" parent="1" vertex="1">
          <mxGeometry x="200" y="310" width="85" height="40" as="geometry" />
        </mxCell>
        <mxCell id="SQy8fN8xQ_37G8Pt4eEv-18" value="Upload Result" style="rounded=0;whiteSpace=wrap;html=1;" parent="1" vertex="1">
          <mxGeometry x="300" y="310" width="85" height="40" as="geometry" />
        </mxCell>
        <mxCell id="SQy8fN8xQ_37G8Pt4eEv-19" value="" style="endArrow=classic;html=1;exitX=0.348;exitY=0.72;exitDx=0;exitDy=0;exitPerimeter=0;entryX=0.5;entryY=0;entryDx=0;entryDy=0;" parent="1" source="SQy8fN8xQ_37G8Pt4eEv-10" target="SQy8fN8xQ_37G8Pt4eEv-18" edge="1">
          <mxGeometry width="50" height="50" relative="1" as="geometry">
            <mxPoint x="380" y="290" as="sourcePoint" />
            <mxPoint x="379.43499999999995" y="325.67999999999995" as="targetPoint" />
          </mxGeometry>
        </mxCell>
        <mxCell id="SQy8fN8xQ_37G8Pt4eEv-22" value="Upload Previous Question" style="rounded=0;whiteSpace=wrap;html=1;" parent="1" vertex="1">
          <mxGeometry x="400" y="310" width="100" height="40" as="geometry" />
        </mxCell>
        <mxCell id="SQy8fN8xQ_37G8Pt4eEv-23" value="" style="endArrow=classic;html=1;exitX=0.518;exitY=0.661;exitDx=0;exitDy=0;exitPerimeter=0;entryX=0.5;entryY=0;entryDx=0;entryDy=0;" parent="1" source="SQy8fN8xQ_37G8Pt4eEv-10" target="SQy8fN8xQ_37G8Pt4eEv-22" edge="1">
          <mxGeometry width="50" height="50" relative="1" as="geometry">
            <mxPoint x="500" y="290" as="sourcePoint" />
            <mxPoint x="500" y="310" as="targetPoint" />
          </mxGeometry>
        </mxCell>
        <mxCell id="SQy8fN8xQ_37G8Pt4eEv-24" value="Set Model Test Question" style="rounded=0;whiteSpace=wrap;html=1;" parent="1" vertex="1">
          <mxGeometry x="510" y="310" width="100" height="40" as="geometry" />
        </mxCell>
        <mxCell id="SQy8fN8xQ_37G8Pt4eEv-25" value="" style="endArrow=classic;html=1;entryX=0.5;entryY=0;entryDx=0;entryDy=0;exitX=0.687;exitY=0.542;exitDx=0;exitDy=0;exitPerimeter=0;" parent="1" source="SQy8fN8xQ_37G8Pt4eEv-10" target="SQy8fN8xQ_37G8Pt4eEv-24" edge="1">
          <mxGeometry width="50" height="50" relative="1" as="geometry">
            <mxPoint x="620" y="275" as="sourcePoint" />
            <mxPoint x="620" y="310" as="targetPoint" />
          </mxGeometry>
        </mxCell>
        <mxCell id="SQy8fN8xQ_37G8Pt4eEv-26" value="Create Employee" style="rounded=0;whiteSpace=wrap;html=1;" parent="1" vertex="1">
          <mxGeometry x="620" y="310" width="100" height="40" as="geometry" />
        </mxCell>
        <mxCell id="SQy8fN8xQ_37G8Pt4eEv-27" value="" style="endArrow=classic;html=1;exitX=0.847;exitY=0.72;exitDx=0;exitDy=0;exitPerimeter=0;" parent="1" source="SQy8fN8xQ_37G8Pt4eEv-10" edge="1">
          <mxGeometry width="50" height="50" relative="1" as="geometry">
            <mxPoint x="750" y="290" as="sourcePoint" />
            <mxPoint x="662" y="309" as="targetPoint" />
          </mxGeometry>
        </mxCell>
        <mxCell id="SQy8fN8xQ_37G8Pt4eEv-28" value="Distribute Work to Employee" style="rounded=0;whiteSpace=wrap;html=1;" parent="1" vertex="1">
          <mxGeometry x="730" y="310" width="100" height="40" as="geometry" />
        </mxCell>
        <mxCell id="SQy8fN8xQ_37G8Pt4eEv-29" value="" style="endArrow=classic;html=1;exitX=0.998;exitY=0.518;exitDx=0;exitDy=0;exitPerimeter=0;entryX=0.289;entryY=0.018;entryDx=0;entryDy=0;entryPerimeter=0;" parent="1" source="SQy8fN8xQ_37G8Pt4eEv-10" target="SQy8fN8xQ_37G8Pt4eEv-28" edge="1">
          <mxGeometry width="50" height="50" relative="1" as="geometry">
            <mxPoint x="770" y="290" as="sourcePoint" />
            <mxPoint x="769.9200000000001" y="323.24" as="targetPoint" />
          </mxGeometry>
        </mxCell>
        <mxCell id="SQy8fN8xQ_37G8Pt4eEv-30" value="" style="ellipse;html=1;shape=endState;fillColor=#000000;strokeColor=#ff0000;" parent="1" vertex="1">
          <mxGeometry x="430" y="500" width="30" height="30" as="geometry" />
        </mxCell>
        <mxCell id="SQy8fN8xQ_37G8Pt4eEv-31" value="&lt;b&gt;&lt;font style=&quot;font-size: 15px&quot;&gt;Logout&lt;/font&gt;&lt;/b&gt;" style="text;html=1;strokeColor=none;fillColor=none;align=center;verticalAlign=middle;whiteSpace=wrap;rounded=0;" parent="1" vertex="1">
          <mxGeometry x="430" y="550" width="40" height="20" as="geometry" />
        </mxCell>
        <mxCell id="SQy8fN8xQ_37G8Pt4eEv-32" value="" style="endArrow=classic;html=1;exitX=0.362;exitY=1.008;exitDx=0;exitDy=0;exitPerimeter=0;entryX=0;entryY=0;entryDx=0;entryDy=0;" parent="1" source="SQy8fN8xQ_37G8Pt4eEv-15" target="SQy8fN8xQ_37G8Pt4eEv-30" edge="1">
          <mxGeometry width="50" height="50" relative="1" as="geometry">
            <mxPoint x="480" y="430" as="sourcePoint" />
            <mxPoint x="530" y="380" as="targetPoint" />
          </mxGeometry>
        </mxCell>
        <mxCell id="SQy8fN8xQ_37G8Pt4eEv-33" value="" style="endArrow=classic;html=1;exitX=0.5;exitY=1;exitDx=0;exitDy=0;entryX=0;entryY=0;entryDx=0;entryDy=0;" parent="1" source="SQy8fN8xQ_37G8Pt4eEv-17" target="SQy8fN8xQ_37G8Pt4eEv-30" edge="1">
          <mxGeometry width="50" height="50" relative="1" as="geometry">
            <mxPoint x="480" y="430" as="sourcePoint" />
            <mxPoint x="530" y="380" as="targetPoint" />
          </mxGeometry>
        </mxCell>
        <mxCell id="SQy8fN8xQ_37G8Pt4eEv-34" value="" style="endArrow=classic;html=1;exitX=0.5;exitY=1;exitDx=0;exitDy=0;entryX=0;entryY=0;entryDx=0;entryDy=0;" parent="1" source="SQy8fN8xQ_37G8Pt4eEv-18" target="SQy8fN8xQ_37G8Pt4eEv-30" edge="1">
          <mxGeometry width="50" height="50" relative="1" as="geometry">
            <mxPoint x="450" y="410" as="sourcePoint" />
            <mxPoint x="500" y="360" as="targetPoint" />
          </mxGeometry>
        </mxCell>
        <mxCell id="SQy8fN8xQ_37G8Pt4eEv-35" value="" style="endArrow=classic;html=1;exitX=0.445;exitY=0.987;exitDx=0;exitDy=0;exitPerimeter=0;entryX=0.5;entryY=0;entryDx=0;entryDy=0;" parent="1" source="SQy8fN8xQ_37G8Pt4eEv-22" target="SQy8fN8xQ_37G8Pt4eEv-30" edge="1">
          <mxGeometry width="50" height="50" relative="1" as="geometry">
            <mxPoint x="450" y="410" as="sourcePoint" />
            <mxPoint x="500" y="360" as="targetPoint" />
          </mxGeometry>
        </mxCell>
        <mxCell id="SQy8fN8xQ_37G8Pt4eEv-36" value="" style="endArrow=classic;html=1;exitX=0.5;exitY=1;exitDx=0;exitDy=0;entryX=1;entryY=0;entryDx=0;entryDy=0;" parent="1" source="SQy8fN8xQ_37G8Pt4eEv-24" target="SQy8fN8xQ_37G8Pt4eEv-30" edge="1">
          <mxGeometry width="50" height="50" relative="1" as="geometry">
            <mxPoint x="450" y="410" as="sourcePoint" />
            <mxPoint x="500" y="360" as="targetPoint" />
          </mxGeometry>
        </mxCell>
        <mxCell id="SQy8fN8xQ_37G8Pt4eEv-37" value="" style="endArrow=classic;html=1;exitX=0.5;exitY=1;exitDx=0;exitDy=0;entryX=1;entryY=0;entryDx=0;entryDy=0;" parent="1" source="SQy8fN8xQ_37G8Pt4eEv-26" target="SQy8fN8xQ_37G8Pt4eEv-30" edge="1">
          <mxGeometry width="50" height="50" relative="1" as="geometry">
            <mxPoint x="450" y="410" as="sourcePoint" />
            <mxPoint x="500" y="360" as="targetPoint" />
          </mxGeometry>
        </mxCell>
        <mxCell id="SQy8fN8xQ_37G8Pt4eEv-38" value="" style="endArrow=classic;html=1;exitX=0.378;exitY=1.05;exitDx=0;exitDy=0;exitPerimeter=0;entryX=1;entryY=0;entryDx=0;entryDy=0;" parent="1" source="SQy8fN8xQ_37G8Pt4eEv-28" target="SQy8fN8xQ_37G8Pt4eEv-30" edge="1">
          <mxGeometry width="50" height="50" relative="1" as="geometry">
            <mxPoint x="460" y="420" as="sourcePoint" />
            <mxPoint x="500" y="360" as="targetPoint" />
          </mxGeometry>
        </mxCell>
      </root>
    </mxGraphModel>
  </diagram>
</mxfile>
